<svg xmlns="http://www.w3.org/2000/svg" viewBox="0 0 120 120" width="120" height="120" role="img" aria-label="Full mouth rehabilitation">
  <g transform="translate(16,66) scale(0.3)">
    <path d="M-1,-33.5 C-17,-33.5 -27,-21.5 -25,-7.5 C-24,-0.5 -21,-3.5 -17,-1.5 C-15,-0.5 -15,2.5 -16,8.5 C-18,18.5 -16,28.5 -11,31.5 C-8,33.5 -6,30.5 -6,26.5 L-5,2.5 C-5,-0.5 3,-0.5 3,2.5 L4,26.5 C4,30.5 6,33.5 9,31.5 C14,28.5 16,18.5 14,8.5 C13,2.5 13,-0.5 15,-1.5 C19,-3.5 22,-0.5 23,-7.5 C25,-21.5 15,-33.5 -1,-33.5 Z" fill="#ffffff" stroke="#123B72" stroke-width="13.33" stroke-linejoin="round"/>
  </g>
  <g transform="translate(33,58) scale(0.3)">
    <path d="M-1,-33.5 C-17,-33.5 -27,-21.5 -25,-7.5 C-24,-0.5 -21,-3.5 -17,-1.5 C-15,-0.5 -15,2.5 -16,8.5 C-18,18.5 -16,28.5 -11,31.5 C-8,33.5 -6,30.5 -6,26.5 L-5,2.5 C-5,-0.5 3,-0.5 3,2.5 L4,26.5 C4,30.5 6,33.5 9,31.5 C14,28.5 16,18.5 14,8.5 C13,2.5 13,-0.5 15,-1.5 C19,-3.5 22,-0.5 23,-7.5 C25,-21.5 15,-33.5 -1,-33.5 Z" fill="#ffffff" stroke="#123B72" stroke-width="13.33" stroke-linejoin="round"/>
  </g>
  <g transform="translate(50,54) scale(0.3)">
    <path d="M-1,-33.5 C-17,-33.5 -27,-21.5 -25,-7.5 C-24,-0.5 -21,-3.5 -17,-1.5 C-15,-0.5 -15,2.5 -16,8.5 C-18,18.5 -16,28.5 -11,31.5 C-8,33.5 -6,30.5 -6,26.5 L-5,2.5 C-5,-0.5 3,-0.5 3,2.5 L4,26.5 C4,30.5 6,33.5 9,31.5 C14,28.5 16,18.5 14,8.5 C13,2.5 13,-0.5 15,-1.5 C19,-3.5 22,-0.5 23,-7.5 C25,-21.5 15,-33.5 -1,-33.5 Z" fill="#ffffff" stroke="#123B72" stroke-width="13.33" stroke-linejoin="round"/>
  </g>
  <g transform="translate(70,54) scale(0.3)">
    <path d="M-1,-33.5 C-17,-33.5 -27,-21.5 -25,-7.5 C-24,-0.5 -21,-3.5 -17,-1.5 C-15,-0.5 -15,2.5 -16,8.5 C-18,18.5 -16,28.5 -11,31.5 C-8,33.5 -6,30.5 -6,26.5 L-5,2.5 C-5,-0.5 3,-0.5 3,2.5 L4,26.5 C4,30.5 6,33.5 9,31.5 C14,28.5 16,18.5 14,8.5 C13,2.5 13,-0.5 15,-1.5 C19,-3.5 22,-0.5 23,-7.5 C25,-21.5 15,-33.5 -1,-33.5 Z" fill="#ffffff" stroke="#123B72" stroke-width="13.33" stroke-linejoin="round"/>
  </g>
  <g transform="translate(87,58) scale(0.3)">
    <path d="M-1,-33.5 C-17,-33.5 -27,-21.5 -25,-7.5 C-24,-0.5 -21,-3.5 -17,-1.5 C-15,-0.5 -15,2.5 -16,8.5 C-18,18.5 -16,28.5 -11,31.5 C-8,33.5 -6,30.5 -6,26.5 L-5,2.5 C-5,-0.5 3,-0.5 3,2.5 L4,26.5 C4,30.5 6,33.5 9,31.5 C14,28.5 16,18.5 14,8.5 C13,2.5 13,-0.5 15,-1.5 C19,-3.5 22,-0.5 23,-7.5 C25,-21.5 15,-33.5 -1,-33.5 Z" fill="#ffffff" stroke="#123B72" stroke-width="13.33" stroke-linejoin="round"/>
  </g>
  <g transform="translate(104,66) scale(0.3)">
    <path d="M-1,-33.5 C-17,-33.5 -27,-21.5 -25,-7.5 C-24,-0.5 -21,-3.5 -17,-1.5 C-15,-0.5 -15,2.5 -16,8.5 C-18,18.5 -16,28.5 -11,31.5 C-8,33.5 -6,30.5 -6,26.5 L-5,2.5 C-5,-0.5 3,-0.5 3,2.5 L4,26.5 C4,30.5 6,33.5 9,31.5 C14,28.5 16,18.5 14,8.5 C13,2.5 13,-0.5 15,-1.5 C19,-3.5 22,-0.5 23,-7.5 C25,-21.5 15,-33.5 -1,-33.5 Z" fill="#ffffff" stroke="#123B72" stroke-width="13.33" stroke-linejoin="round"/>
  </g>
  <path d="M12,80 C40,92 80,92 108,80" fill="none" stroke="#0E9F9A" stroke-width="2.5" stroke-linecap="round" opacity="0.55"/>
</svg>
