<svg xmlns="http://www.w3.org/2000/svg" viewBox="0 0 120 120" width="120" height="120" role="img" aria-label="Gum treatment">
  <path d="M31,60 C31,49 44,43 60,43 C76,43 89,49 89,60 L89,70 C89,60 76,55 60,55 C44,55 31,60 31,70 Z" fill="#0E9F9A" fill-opacity="0.45" stroke="#123B72" stroke-width="2.5" stroke-linejoin="round"/>
  <path d="M60,30 C44,30 34,42 36,56 C37,63 40,60 44,62 C46,63 46,66 45,72 C43,82 45,92 50,95 C53,97 55,94 55,90 L56,66 C56,63 64,63 64,66 L65,90 C65,94 67,97 70,95 C75,92 77,82 75,72 C74,66 74,63 76,62 C80,60 83,63 84,56 C86,42 76,30 60,30 Z" fill="#ffffff" stroke="#123B72" stroke-width="4" stroke-linejoin="round"/>
  <path d="M95,68 L95,78 M90,73 L100,73" stroke="#0E9F9A" stroke-width="3.5" stroke-linecap="round"/>
</svg>
